# xmcd
#
# Track frame offsets:
#	182
#	18902
#	35417
#	50912
#	66830
#	82230
#	100792
#	115390
#	129630
#	145937
#	162007
#
# Disc length: 2432 seconds
#
# Revision: 3
# Processed by: cddbd v1.5.2PL0 Copyright (c) Steve Scherf et al.
# Submitted via: audiograbber 1.83.01
#
DISCID=99097e0b
DTITLE=Burnin' Daylight - Burnin' Daylight
DYEAR=1997
DGENRE=Country
TTITLE0=Say yes
TTITLE1=God made a woman
TTITLE2=Some hearts (get all the breaks)
TTITLE3=Nice work (if you can get it)
TTITLE4=I wouldn't know
TTITLE5=The only way I know
TTITLE6=Love worth fighting for
TTITLE7=Live to love again
TTITLE8=Cut and run
TTITLE9=My new tattoo
TTITLE10=Everything or nothing at all
EXTD=
EXTT0=
EXTT1=
EXTT2=
EXTT3=
EXTT4=
EXTT5=
EXTT6=
EXTT7=
EXTT8=
EXTT9=
EXTT10=
PLAYORDER=
